<svg width="35" height="24" viewBox="0 0 35 24" fill="none" xmlns="http://www.w3.org/2000/svg">
<path d="M3.35036 6.49335C3.25478 6.56477 3.15572 6.64207 3.06188 6.73282C2.96978 6.82441 2.87768 6.9244 2.78557 7.02859C2.69521 7.13446 2.59876 7.24033 2.51274 7.35796C2.42759 7.4756 2.34244 7.59575 2.25728 7.71675C2.08177 7.95454 1.93406 8.21334 1.77678 8.45197C1.69858 8.57128 1.62038 8.68724 1.5474 8.80319C1.4718 8.91662 1.39968 9.02754 1.32583 9.13089C1.32583 9.13089 1.30671 9.19895 1.2876 9.26617C1.26935 9.33423 1.25197 9.40229 1.25197 9.40229C1.04431 9.67117 0.858362 10.0543 0.690665 10.4812C0.522099 10.9089 0.373518 11.3794 0.212772 11.834C0.188443 12.0692 0.175409 12.1919 0.169327 12.2457C0.180623 12.2037 0.204083 12.1407 0.251003 12.1281C0.164983 12.3894 0.134571 12.9423 0.0589773 12.8969L0.0563706 12.8263C0.0172703 12.8019 0.00249902 13.0128 0.00423681 13.2674C0.00597461 13.3951 0.00597461 13.5338 0.011188 13.6598C0.0129258 13.7859 0.0103191 13.9001 -0.000976562 13.9791C-0.000976562 13.9791 0.019008 13.9354 0.0389927 13.8917C0.0589773 13.848 0.0824375 13.8052 0.0824375 13.8052C0.0824375 13.8052 0.0806997 13.838 0.0824375 13.8867C0.0841753 13.9354 0.0867819 14.001 0.0902575 14.0665C0.0928642 14.132 0.0954709 14.1976 0.100684 14.2463C0.105029 14.2951 0.108504 14.3278 0.108504 14.3278L0.0737485 14.19C0.184098 14.7538 0.320515 15.226 0.468227 15.6495C0.616809 16.073 0.779292 16.4469 0.966105 16.804C1.15379 17.1603 1.36753 17.4998 1.63776 17.8359C1.90799 18.1711 2.23643 18.5022 2.65698 18.8248C2.52056 18.7643 2.60311 18.8282 2.71954 18.9131C2.83336 18.9996 2.97847 19.1072 2.95414 19.1559C3.11315 19.3786 3.31908 19.5222 3.52674 19.6382C3.73701 19.7508 3.94989 19.8348 4.14366 19.934C4.14626 19.9298 4.15495 19.9272 4.18015 19.934C4.18015 19.934 4.33829 20.0373 4.50077 20.1348C4.58071 20.1852 4.66413 20.2306 4.72495 20.2667C4.78664 20.302 4.82748 20.3255 4.82748 20.3255C4.59461 20.2743 4.72842 20.3179 4.86832 20.3574C5.00821 20.3961 5.15332 20.4339 4.9413 20.3885C5.15332 20.5154 5.38183 20.6339 5.62078 20.749C5.8606 20.8666 6.11171 20.9574 6.36803 21.0607C6.49663 21.1103 6.62609 21.1607 6.7573 21.212L6.85548 21.2498L6.95627 21.2817C7.02405 21.3027 7.09182 21.3237 7.1596 21.3456C7.29601 21.3876 7.4333 21.4296 7.57145 21.4724C7.64096 21.4935 7.70961 21.5145 7.77999 21.5363C7.8495 21.5582 7.91901 21.5792 7.99026 21.5943C9.11983 21.8976 10.3137 22.0741 11.4337 22.206L11.339 22.1631C11.6231 22.1892 11.9437 22.2135 12.2461 22.2287C12.5485 22.2388 12.8335 22.2539 13.049 22.2909C13.2653 22.332 13.5017 22.3026 13.705 22.2757C13.9083 22.2463 14.0777 22.2093 14.1612 22.2068C14.2793 22.1934 14.394 22.1867 14.4974 22.185C14.6008 22.185 14.6921 22.19 14.7633 22.1984C14.8797 22.2119 14.938 22.232 14.8989 22.2396C15.3898 22.2068 15.8468 22.0573 16.5289 22.0623C16.6523 22.1085 17.1232 22.0363 17.5664 21.9682C18.0078 21.8901 18.4205 21.8161 18.4396 21.8791L18.4457 21.8674C18.894 21.8598 19.3189 21.7783 19.7525 21.7018C20.1835 21.6145 20.6249 21.5329 21.1019 21.4909C21.1019 21.4909 21.0854 21.5035 21.055 21.517C21.055 21.517 21.5146 21.338 21.9751 21.1582L22.8884 20.791L22.2636 20.4675C22.2636 20.4675 22.1567 20.465 21.9969 20.4608C21.837 20.4574 21.6232 20.4515 21.4104 20.4423C21.1975 20.4347 20.9855 20.4263 20.8256 20.4213C20.6666 20.4163 20.5606 20.4104 20.5606 20.4104C20.5606 20.4104 20.2843 20.4591 19.8698 20.5314C19.663 20.5692 19.4206 20.6087 19.1617 20.6482C18.9027 20.6877 18.6255 20.7356 18.3492 20.7725C18.0721 20.8103 17.7949 20.8473 17.536 20.8826C17.2762 20.9154 17.0337 20.9389 16.8252 20.9633C16.409 21.0128 16.1318 21.0322 16.1318 21.0322C16.1318 21.0322 15.9094 21.038 15.5757 21.0473C15.4923 21.049 15.4019 21.0532 15.3072 21.0532C15.2117 21.0532 15.1117 21.0523 15.0075 21.0515C14.7998 21.0506 14.5782 21.049 14.3575 21.0481C14.1368 21.0431 13.9161 21.0313 13.7102 21.0238C13.5043 21.0128 13.3105 21.012 13.1472 20.996C12.8187 20.9691 12.6006 20.9515 12.6006 20.9515C12.6006 20.9515 12.4677 20.9465 12.2339 20.9381C12.002 20.9196 11.6709 20.8927 11.2738 20.8607C11.0766 20.8389 10.8637 20.8087 10.6378 20.7801C10.5248 20.7658 10.4093 20.7507 10.2902 20.7356C10.1721 20.7204 10.053 20.6935 9.93138 20.6734C9.68895 20.6272 9.43524 20.5868 9.18152 20.5331C8.92954 20.4726 8.67408 20.4112 8.41863 20.349C8.29003 20.3213 8.16491 20.281 8.04066 20.2432C7.91554 20.2054 7.79128 20.1675 7.6679 20.1297C7.54452 20.0919 7.422 20.0541 7.30123 20.0171C7.18306 19.9726 7.06662 19.9289 6.95193 19.8861C6.72428 19.7987 6.4975 19.7197 6.29331 19.6357C6.09085 19.5516 5.9023 19.4626 5.73026 19.3794C5.38618 19.2105 5.11074 19.0509 4.92132 18.9357C4.82661 18.8778 4.75188 18.8324 4.70323 18.7988C4.6537 18.7668 4.62676 18.7492 4.62676 18.7492C4.62676 18.7492 4.59288 18.7341 4.54248 18.7114C4.49208 18.6879 4.42518 18.6559 4.35914 18.6248C4.2262 18.5602 4.09413 18.4921 4.09413 18.4921C3.80218 18.2173 3.49633 17.9266 3.19743 17.6124C2.89853 17.2989 2.61266 16.9578 2.35981 16.594C1.85672 15.8672 1.51525 15.0202 1.48484 14.2186L1.39534 14.1959C1.34321 13.7422 1.41098 13.7699 1.42141 13.659C1.3936 12.6087 1.67512 11.5231 2.14433 10.5081C2.19994 10.3803 2.26597 10.2551 2.3268 10.1291C2.3937 10.0047 2.45626 9.87955 2.52751 9.75687C2.66306 9.50984 2.81512 9.27037 2.97499 9.03426C3.05406 8.91662 3.12966 8.79563 3.2122 8.67968L3.46766 8.33853C3.63188 8.10663 3.82304 7.89488 4.00377 7.67726C4.74233 6.81601 5.59819 6.06566 6.50271 5.42119C7.4081 4.77672 8.36649 4.23981 9.33184 3.80456C9.42828 3.77011 9.57339 3.71549 9.73935 3.64659C9.90531 3.57937 10.0895 3.49283 10.2781 3.42224C10.4657 3.3483 10.65 3.2752 10.8072 3.21722C10.9671 3.16345 11.1 3.12312 11.18 3.10883C11.491 2.95927 11.8186 2.83323 12.1488 2.70383C12.4842 2.58788 12.8213 2.46856 13.1645 2.36521C13.8518 2.16355 14.5487 1.99382 15.2334 1.86695L15.1839 1.88543L15.8251 1.74679C15.8538 1.74847 15.859 1.75771 15.839 1.7678C16.018 1.71822 16.2257 1.68041 16.4507 1.64176C16.5628 1.62327 16.6792 1.60563 16.7983 1.58882C16.9182 1.57454 17.0407 1.56446 17.1641 1.55353C17.2883 1.54345 17.4134 1.53337 17.5386 1.52328C17.6637 1.51404 17.7888 1.50228 17.9131 1.5006C18.1607 1.49219 18.4031 1.48379 18.629 1.47539L18.5769 1.48799C21.2044 1.33591 23.7651 1.57286 26.1884 2.27278L27.0895 2.55679C27.3832 2.65762 27.6734 2.76937 27.9601 2.88785C28.246 3.00884 28.5275 3.13908 28.8047 3.27772C29.0801 3.41888 29.3512 3.56845 29.6153 3.72809C30.6693 4.36836 31.6225 5.18004 32.328 6.16313C32.4818 6.3984 32.6339 6.63871 32.7694 6.89247C32.8416 7.01682 32.9024 7.1479 32.9693 7.27646C33.0292 7.40838 33.0944 7.53946 33.1483 7.67558C33.2082 7.81002 33.2552 7.9495 33.309 8.0873C33.3533 8.22846 33.4055 8.36878 33.442 8.51415C33.5254 8.80151 33.5871 9.0998 33.6288 9.40229C33.8026 10.6106 33.6227 11.934 33.1118 13.1279C33.0492 13.2321 32.8911 13.6178 32.6304 14.122C32.3706 14.6261 31.9953 15.2437 31.5565 15.8151C31.1194 16.3932 30.6111 16.925 30.1906 17.3292C29.982 17.5325 29.79 17.7006 29.6449 17.8333C29.4954 17.9619 29.392 18.0543 29.3486 18.0963L29.6292 17.9333C29.7005 17.893 29.7691 17.851 29.8204 17.8182C29.8717 17.7863 29.9064 17.7653 29.9064 17.7653C29.5267 18.1081 29.1766 18.3862 28.8438 18.6257C28.5136 18.8677 28.2017 19.071 27.8949 19.2668C27.2789 19.6542 26.682 20.0062 25.9086 20.4784L25.9851 20.4112C25.8626 20.4633 25.8 20.5599 25.4255 20.7818C25.0519 21.0019 24.3655 21.3573 22.9787 21.843L22.9744 21.8338C22.8831 21.8774 22.8927 21.8951 22.6963 21.9539C22.6963 21.9539 22.818 21.9161 22.9396 21.8783C23.0613 21.8396 23.1829 21.801 23.1829 21.801C22.9196 21.9497 22.7007 22.1052 22.3331 22.2724C22.2497 22.2967 22.2141 22.2892 22.1993 22.2774C22.1993 22.2774 21.9734 22.3782 21.7475 22.4791C21.6337 22.5286 21.5207 22.5774 21.4356 22.6143C21.3504 22.6513 21.2931 22.6757 21.2931 22.6757L20.9855 22.7286C20.7179 22.8706 20.9012 22.9546 20.114 23.1689C20.4363 23.1521 19.7577 23.3613 19.8689 23.3722C19.8264 23.3748 19.7325 23.3907 19.6561 23.4008C19.431 23.4874 19.1052 23.6117 18.8106 23.7243C18.5161 23.8394 18.2511 23.9411 18.152 24.0008C18.152 24.0008 18.2693 23.9764 18.4518 23.9386C18.6351 23.8999 18.8853 23.8478 19.1512 23.7915C19.6821 23.6764 20.2782 23.5411 20.5363 23.4958C19.8846 23.7125 20.3712 23.5714 20.5102 23.5529L20.5441 23.5143C20.9377 23.3907 20.9603 23.4445 21.1593 23.3849C21.1575 23.3807 21.1488 23.3773 21.1419 23.3739L21.1201 23.3907C21.0976 23.3882 21.1054 23.3773 21.1236 23.363C21.1141 23.3529 21.128 23.3361 21.2331 23.2983L21.2157 23.3118C21.373 23.242 21.6502 23.1361 21.7718 23.0916L21.7944 23.137C21.9161 23.0345 22.4035 22.8698 22.9066 22.7017C23.408 22.5312 23.9258 22.3572 24.1118 22.2682C24.5141 22.1472 24.9346 21.8472 25.4073 21.6388C26.1415 21.2691 25.8078 21.5136 26.1928 21.3548C26.662 21.1355 26.0711 21.3531 26.251 21.2515C26.251 21.2515 26.3952 21.1926 26.5395 21.1338C26.6837 21.0733 26.8271 21.0128 26.8271 21.0128C26.5169 21.1943 26.7028 21.1254 26.7706 21.1095C27.0061 20.9826 27.3189 20.8313 27.5821 20.6868C27.8463 20.5448 28.0592 20.4053 28.1017 20.3205C28.4206 20.1457 28.5866 20.065 28.7047 20.0054C28.8229 19.9457 28.8959 19.9138 29.0254 19.8256C28.9289 19.8718 28.7456 19.9709 28.7325 19.9558C29.001 19.8306 28.8412 19.8693 28.7369 19.9272C28.9098 19.7886 29.4094 19.497 29.8578 19.2004C30.3079 18.9072 30.6997 18.6022 30.6963 18.5299L30.7102 18.545C30.7301 18.4156 30.5511 18.4652 30.751 18.2274L30.9291 18.1148C30.9291 18.1148 30.9795 18.056 31.0308 17.9972C31.082 17.9392 31.1298 17.877 31.1298 17.877C31.2975 17.7502 31.2411 17.8375 31.2489 17.8443C31.5851 17.4661 32.0987 16.9788 32.4844 16.4982C32.4844 16.4982 32.4479 16.5217 32.3941 16.5578C32.3385 16.5914 32.2637 16.6368 32.1899 16.6814C32.116 16.7259 32.0422 16.7696 31.9866 16.8032C31.9318 16.836 31.8927 16.8561 31.8927 16.8561C32.0795 16.6805 32.3385 16.4276 32.5418 16.1932C32.6478 16.0789 32.7295 15.9638 32.7938 15.8756C32.8563 15.7857 32.8946 15.7193 32.8928 15.6882L33.124 15.468C33.1665 15.4185 33.2056 15.3722 33.2395 15.3286C33.2717 15.284 33.3012 15.2437 33.3281 15.2067C33.3811 15.1319 33.422 15.0689 33.4533 15.016C33.5176 14.911 33.5375 14.8421 33.5488 14.79C33.5697 14.6858 33.5436 14.6454 33.6575 14.4732C33.6575 14.4732 33.6774 14.4471 33.7052 14.406C33.733 14.3648 33.7695 14.311 33.8069 14.2564C33.8808 14.1472 33.9546 14.0379 33.9546 14.0379C33.9546 14.0379 33.8999 14.1547 33.8451 14.2724C33.8182 14.3312 33.7904 14.3892 33.7704 14.4337C33.7504 14.4782 33.7348 14.506 33.7348 14.506C33.8643 14.2808 33.959 14.1245 34.0424 13.9758C34.1223 13.8262 34.2066 13.6918 34.303 13.5044V13.4993C34.29 13.5254 34.2804 13.5413 34.2744 13.543L34.297 13.4733C34.2752 13.3985 34.3491 13.138 34.4508 12.7876C34.4707 12.7255 34.4899 12.6658 34.5064 12.6053C34.5203 12.5448 34.5342 12.4843 34.5481 12.4238C34.5733 12.302 34.6045 12.181 34.628 12.0482C34.6515 11.9155 34.681 11.7735 34.7166 11.6147C34.7436 11.4542 34.7861 11.2769 34.8287 11.071L34.7575 10.8576C34.7575 10.8576 34.7636 10.8189 34.7731 10.761C34.7827 10.703 34.7957 10.6257 34.8018 10.5484C34.8174 10.3921 34.8331 10.2367 34.8331 10.2367H34.9026C34.9008 10.314 34.9 10.3997 34.8982 10.4921C34.8982 10.5383 34.8974 10.5862 34.8965 10.6358C34.893 10.6853 34.8895 10.7358 34.8869 10.7879C34.88 10.892 34.873 11.0004 34.8652 11.1122C34.8557 11.2239 34.8391 11.3374 34.8261 11.4533C34.8192 11.5113 34.8122 11.5693 34.8053 11.6281C34.7966 11.6861 34.7853 11.7441 34.7757 11.802C34.7549 11.918 34.7349 12.0331 34.7149 12.1457C34.6888 12.2575 34.6628 12.3667 34.6384 12.4726C34.6263 12.5255 34.6132 12.5776 34.6011 12.628C34.5863 12.6784 34.5724 12.7271 34.5585 12.7742L34.5854 12.796C34.6019 12.7398 34.6202 12.6826 34.6341 12.6238C34.6471 12.565 34.661 12.5062 34.6741 12.4465C34.6993 12.328 34.7279 12.2112 34.747 12.097C34.7818 11.8676 34.8226 11.6609 34.8426 11.5063C34.873 11.3743 34.9756 11.0551 35.0025 11.1987C34.9999 11.1735 34.9973 11.145 34.9921 11.1156C34.9808 11.0408 34.9695 10.966 34.9695 10.966C34.9764 10.8668 34.9834 10.7744 34.9895 10.687C34.9956 10.5996 34.9929 10.5173 34.9956 10.4392C34.9956 10.2837 35.0034 10.1467 34.9938 10.0207C34.9886 9.89551 34.9834 9.78208 34.979 9.67453C34.9738 9.56698 34.9599 9.46531 34.9521 9.3628C34.9373 9.15778 34.9113 8.95191 34.8722 8.69312C34.847 8.56456 34.8296 8.42088 34.7914 8.26123C34.7731 8.18057 34.754 8.0957 34.734 8.00496C34.7097 7.91505 34.6836 7.81926 34.6567 7.71759L34.668 7.86716C34.5507 7.55374 34.403 7.25629 34.4186 7.15042C34.2257 6.68241 33.9876 6.22279 33.7443 5.81695C33.5028 5.41027 33.2578 5.05737 33.0718 4.77924L32.9128 4.72295C32.8442 4.6406 32.7747 4.52381 32.7025 4.4255C32.6322 4.32635 32.5557 4.25073 32.4775 4.25325C32.4775 4.25325 32.3889 4.18015 32.2994 4.10705C32.2081 4.03647 32.1178 3.96672 32.1178 3.96672C31.9032 3.76759 31.7363 3.68944 31.5052 3.44913L31.5035 3.44745C31.4896 3.43317 31.4739 3.4172 31.4591 3.40208C31.4574 3.40376 31.4574 3.40712 31.4583 3.40964C31.2054 3.1979 31.195 3.21386 31.1768 3.22143C31.1576 3.22983 31.1324 3.22563 30.8353 2.9954C30.6667 2.81475 30.5555 2.92986 30.2566 2.724C30.2566 2.724 30.1932 2.65342 30.1297 2.58284C30.0663 2.51142 30.0011 2.44167 30.0011 2.44167C29.7283 2.25094 29.5484 2.17027 29.3321 2.08457C29.1149 1.9997 28.8611 1.90644 28.4206 1.71906C28.2164 1.61151 28.0705 1.5174 28.0148 1.45354C27.9601 1.38884 27.9957 1.35355 28.1573 1.36952C27.9384 1.34095 27.888 1.33927 27.8228 1.32667C27.7898 1.31994 27.7542 1.3107 27.6916 1.2939C27.6299 1.27709 27.5413 1.25188 27.4057 1.22248C27.3397 1.1561 27.3988 1.16534 27.5291 1.16702C27.0756 0.96704 27.2259 1.10988 26.8731 0.993088C26.7436 1.03762 26.5881 1.11828 26.4717 1.09308C26.4717 1.09308 26.5038 1.1082 26.5368 1.12417C26.569 1.14097 26.6011 1.15778 26.6011 1.15778C26.4083 1.12081 26.2067 1.0872 26.0016 1.0351C25.7957 0.986366 25.588 0.916625 25.3717 0.851926L25.3986 0.816636L24.9233 0.73093L24.9051 0.673793C24.9051 0.673793 24.8625 0.665391 24.7991 0.652787C24.7356 0.641024 24.6513 0.620858 24.5662 0.608254C24.3959 0.582206 24.2256 0.555318 24.2256 0.555318L24.316 0.585567C24.236 0.574644 24.064 0.550277 23.8754 0.519188C23.7816 0.502383 23.6834 0.485578 23.5896 0.468773C23.4957 0.454489 23.4071 0.438524 23.3332 0.421719L23.3489 0.394831C23.1395 0.344416 22.937 0.307445 22.7363 0.279717C22.5347 0.252829 22.334 0.246947 22.1289 0.236864C22.0264 0.232663 21.923 0.229302 21.817 0.225101C21.764 0.22342 21.711 0.22174 21.6571 0.219219C21.6033 0.219219 21.5485 0.219219 21.4929 0.219219C21.2713 0.219219 21.0393 0.217539 20.7891 0.208296L20.9229 0.15536C20.5832 0.0830991 20.8265 0.235184 20.4207 0.202414L20.4016 0.130153C20.0418 0.22258 19.9376 0.107466 19.6891 0.0696551L19.8055 0.164603C19.8055 0.164603 19.776 0.162923 19.7325 0.161242C19.6891 0.158721 19.6309 0.157041 19.5726 0.157041L19.3398 0.15536C18.8263 0.141916 19.02 0.0469684 19.0939 -0.00512695L18.7463 0.0814186L18.6733 0.000754782C18.4231 0.114188 18.4161 0.00327552 17.9713 0.0881406C17.9313 0.0595721 18.0434 0.0326842 17.8896 0.0310037C17.8896 0.0310037 17.8435 0.0419269 17.7758 0.0578916C17.7071 0.0738563 17.6159 0.0948625 17.5264 0.12175C17.3457 0.172165 17.1658 0.22174 17.1658 0.22174L17.6029 0.12007L17.5612 0.247788C17.1119 0.39231 16.9364 0.303244 16.6132 0.378026C16.6132 0.378026 16.6679 0.360381 16.7235 0.345256C16.7791 0.330132 16.8339 0.314167 16.8339 0.314167C16.7001 0.335173 16.5993 0.351138 16.5167 0.363742C16.4342 0.375505 16.3708 0.380547 16.3143 0.382227C16.2013 0.386429 16.1153 0.379707 15.9624 0.388949C16.0597 0.397352 16.2074 0.409115 15.9945 0.457009C15.8373 0.488099 15.9016 0.427601 15.7495 0.436843C15.7269 0.517507 15.3576 0.635142 15.0057 0.66203C15.0075 0.650266 15.0127 0.637663 15.0335 0.625899C14.9484 0.655308 14.9075 0.684717 14.7511 0.6948L14.8215 0.588928L14.6834 0.659509C14.6147 0.694799 14.547 0.734291 14.547 0.734291C14.3471 0.754457 14.0795 0.883855 14.0899 0.818316L14.1959 0.775463C14.1959 0.775463 14.1038 0.795629 13.9648 0.825038C13.8258 0.854447 13.6407 0.892258 13.4582 0.941832L12.7249 1.12669L12.6832 1.06283C12.5693 1.19979 11.8829 1.26785 11.9698 1.3712C11.8968 1.37624 11.7934 1.40145 11.6822 1.4359C11.5718 1.47287 11.4537 1.5174 11.3485 1.55521C11.1374 1.63084 10.9767 1.67957 11.0314 1.5863C10.5613 1.75267 10.2129 1.91652 9.84535 2.09885C9.75238 2.14255 9.65854 2.18708 9.56122 2.23329C9.46391 2.28119 9.36399 2.33076 9.25711 2.38034C9.15024 2.42991 9.03728 2.48117 8.91477 2.53326C8.79312 2.5862 8.66453 2.64333 8.5255 2.70383C8.41515 2.72568 8.26657 2.77609 8.0954 2.84667C7.92683 2.9223 7.73567 3.01809 7.5367 3.12228C7.43677 3.17269 7.33685 3.22983 7.2378 3.28864C7.13874 3.34746 7.03882 3.40628 6.94063 3.46426C6.74253 3.57769 6.55832 3.69953 6.39236 3.80372C6.07521 4.01714 5.80151 4.23308 5.5391 4.4339C5.40529 4.53221 5.28539 4.64144 5.16287 4.74227C5.04123 4.84562 4.91958 4.94477 4.80054 5.04896C4.68411 5.15568 4.56855 5.26323 4.45038 5.37162C4.39129 5.42624 4.33221 5.48085 4.27225 5.53547C4.2123 5.59008 4.15582 5.65142 4.09674 5.71024C3.97944 5.82871 3.85779 5.95055 3.73267 6.07743C3.60755 6.2043 3.48764 6.34547 3.35644 6.48831L3.35036 6.49335Z" fill="#FA3158"/>
</svg>
